<?xml version="1.0" encoding="UTF-8"?>
<svg width="228px" height="32px" viewBox="0 0 222 32" version="1.1" xmlns="http://www.w3.org/2000/svg" xmlns:xlink="http://www.w3.org/1999/xlink">
    <!-- Generator: Sketch 55.2 (78181) - https://sketchapp.com -->
    <title>logo</title>
    <desc>Created with Sketch.</desc>
    <g id="themes" stroke="none" stroke-width="1" fill="none" fill-rule="evenodd">
        <g id="about" transform="translate(-24.000000, -23.000000)">
            <g id="header">
                <g id="logo-developers--dark" transform="translate(24.000000, 23.000000)">
                    <g id="logo">
                        <text id="Developers" font-family="Roboto-Regular, Roboto" font-size="24" font-weight="normal" fill="rgba(255,255,255,0.8)">
                            <tspan x="104" y="24">Developers</tspan>
                        </text>
                        <g fill="#FFFFFF">
                            <path d="M61.327584,23.7416292 C60.0594612,23.7416292 59.4027393,23.5374129 58.8593198,22.9702778 C58.0440826,22.1536292 57.7270519,21.0191427 57.7270519,17.5028184 C57.7270519,13.9636832 58.0440826,12.8520075 58.8593198,12.0126562 C59.3800789,11.4681157 60.0594612,11.2638994 61.327584,11.2638994 L65.5620696,11.2638994 C66.8300845,11.2638994 67.4868063,11.4681157 68.0302259,12.0126562 C68.8454631,12.8520075 69.1624938,13.9636832 69.1624938,17.5028184 C69.1624938,21.0418454 68.8454631,22.1536292 68.0302259,22.9702778 C67.4868063,23.5374129 66.8300845,23.7416292 65.5620696,23.7416292 L61.327584,23.7416292 Z M61.1689607,20.9940616 L61.1689607,14.006494 L65.7205849,14.006494 L65.7205849,20.9940616 L61.1689607,20.9940616 Z M79.4578553,15.2128184 L79.4588264,15.2128184 L79.4588264,14.0545481 L78.2017101,14.0545481 C78.1836897,14.05444 78.1653455,14.05444 78.1466776,14.05444 L77.172925,14.05444 C77.1600841,14.05444 77.1473511,14.05444 77.134618,14.0545481 L75.202112,14.0545481 L75.202112,15.2128184 L75.2027594,15.2128184 L75.2027594,23.7416832 L71.738298,23.7416832 L71.738298,11.2639535 L74.0197753,11.2639535 L74.0197753,11.2631967 L75.1897027,11.2631967 L75.1897027,11.4877373 L75.1897027,12.8411427 L76.9354218,11.2631967 L77.9483446,11.2631967 C78.107939,11.2471967 78.277245,11.2413589 78.4636004,11.2413589 L79.9808804,11.2413589 C81.0451669,11.2413589 81.7244413,11.4680616 82.1999873,11.9446021 C82.7207464,12.4437373 82.9245827,13.1015751 82.9245827,14.9391967 L82.9245827,23.7416832 L79.4600134,23.7416832 L79.4600134,15.3475211 C79.4600134,15.3008184 79.459258,15.2559535 79.4578553,15.2128184 Z M52.3120856,7.81395349 L56.4349953,7.81395349 L50.5125209,15.3220616 L56.6855553,23.7886562 L52.3120856,23.7886562 L47.617053,17.1362238 L46.5035609,17.1310346 L46.5035609,23.7886562 L42.7906977,23.7886562 L42.7906977,7.81395349 L46.5035609,7.81395349 L46.5035609,14.0062778 L47.6155423,14.0062778 L52.3120856,7.81395349 Z M93.5489741,11.2631643 L97.0355565,11.2639211 L97.0355565,24.2612184 C97.0355565,26.4164616 96.8090597,26.7815427 96.2429797,27.3713805 C95.7900941,27.8478129 95.0654988,28.0747319 93.797376,28.0747319 L88.6880886,28.0640292 L87.1132941,26.3151643 L87.1084383,25.5795967 L93.5489741,25.5795967 L93.5427155,23.8003535 L89.1497146,23.7975427 C87.8136104,23.7975427 87.1399472,23.5477048 86.5737593,23.0031643 C85.8491639,22.2545157 85.5547937,20.6160292 85.5547937,17.5533265 C85.5547937,14.4679211 85.9171453,12.7839211 86.6642932,12.0126778 C87.2303732,11.4681373 87.9550765,11.2413265 89.2005388,11.2413265 L91.8031472,11.2631643 L93.5489741,12.8411102 L93.5489741,11.2631643 Z M89.0192551,20.9986238 L93.5708793,20.9986238 L93.5708793,14.0065157 L89.0192551,14.0065157 L89.0192551,20.9986238 Z"></path>
                            <path d="M11.6705275,26.4186047 L18.1941862,26.4186047 L21.5813953,30.5816932 L20.9990034,32 L12.570874,32 L12.7775608,30.5816932 L10.7906977,27.5179103 L11.6705275,26.4186047 Z M16.4190961,7.44710119 L19.9324762,7.44186047 L35.7209302,25.9891023 L34.4941552,31.627907 L27.727398,31.627907 L28.1486374,30.0390051 L13.3953488,12.7036539 L16.4190961,7.44710119 Z M22.4669195,0 L29.8064039,5.77167538 L28.867059,6.74181057 L30.1395349,8.51489041 L30.1395349,10.4110784 L26.4803958,13.3953488 L20.3268316,6.12143154 L16.744186,6.12143154 L18.1867438,3.47605792 L22.4669195,0 Z M7.30159543,18.1414224 L12.4780624,13.7674419 L19.3488372,21.8055711 L17.3979903,24.7502609 L11.062757,24.7502609 L6.67988982,30.3418448 L5.67891015,31.627907 L-1.42108547e-14,31.627907 L-1.42108547e-14,24.7672686 L5.29323346,18.1414224 L7.30159543,18.1414224 Z" id="icn"></path>
                        </g>
                    </g>
                </g>
            </g>
        </g>
    </g>
</svg>
