<svg xmlns="http://www.w3.org/2000/svg" xmlns:xlink="http://www.w3.org/1999/xlink" viewBox="0 0 1200 1200"><defs><style>.cls-1,.cls-11,.cls-12,.cls-6,.cls-7,.cls-9{fill:none;}.cls-2{fill:#fff;}.cls-3{fill:url(#New_Pattern);}.cls-4{fill:rgba(255,255,255,0.3);}.cls-5{opacity:0.69;}.cls-11,.cls-6,.cls-9{stroke:#fff;}.cls-11,.cls-12,.cls-6,.cls-7,.cls-9{stroke-linecap:round;}.cls-6{stroke-miterlimit:10;}.cls-6,.cls-9{stroke-width:2.5px;}.cls-7,.cls-16,.cls-17{stroke:#fff;}.cls-11,.cls-12,.cls-7,.cls-9{stroke-linejoin:round;}.cls-12,.cls-7{stroke-width:12.98px;}.cls-8{opacity:0.27;isolation:isolate;}.cls-10{fill:#ffc88e;}.cls-17{fill:rgba(255,255,255,0.95)}.cls-16{fill:rgba(255,255,255,1)}.cls-11{stroke-width:5.79px;}.cls-12{stroke:#dfdfdf;}</style><pattern id="New_Pattern" data-name="New Pattern" width="12" height="12" patternUnits="userSpaceOnUse" viewBox="0 0 12 12"><rect class="cls-1" width="12" height="12"/><circle class="cls-2" cx="12" cy="9" r="2"/><circle class="cls-2" cx="6" cy="12" r="2"/><circle class="cls-2" cy="9" r="2"/><circle class="cls-2" cx="12" cy="3" r="2"/><circle class="cls-2" cx="6" cy="6" r="2"/><circle class="cls-2" cy="3" r="2"/><circle class="cls-2" cx="6" r="2"/></pattern></defs><title>Artboard 1</title><g id="Shadow"><polygon class="cls-3" points="512.79 368.48 506.99 386.77 522.13 398.35 524.88 386.24 533.9 361.68 523.3 367.4 512.79 368.48"/><path class="cls-3" d="M465.79,403.67c-3.08,2.47-10.41,5.45-14,2.82-5,10.15-10.19,24.71-10.19,24.71L437,449.47l-5.14,33.38-2.09,26.82-.78,32.3.58,25.46,1.58,20,4.42,3.5,20.73,5,27.27,3.12h48.53s17.21-1.14,8.62-3.54-31.23-10.17-46.31-26.67c-13.43-3.3-17.94-5.81-17.94-5.81l-6.9-6.5-6.26-11.81L461,534.34l-2-13.94-.71-27.51-10.22-3.95L445,471.66l1.35-19.17L448.37,436l7.44-21,5.31-7.13Z"/></g><g id="Vector"><path class="cls-4" d="M284.8,695.1v308.4h717V695.1ZM554.34,865.46l22.22-37.29,17.08,10.1-5.14,9,39.85,58.22Zm196.34-44.93-19.33-38.86,17.73-8.9,4.79,9.19,70.52-2Z"/><g id="Layer_3" data-name="Layer 3"><path class="cls-6" d="M430.41,581.67c-8.28,5.16-24.5,9.56-57.61,10.63-34.38,0-62.6-33-62.6-76-1-93.7,96.4-111.5,150.6-216.1,24.9-48.1,55.1-46.9,62.7-46.5,16.6.9,40.2,14,40.2,36.9a27.44,27.44,0,0,1-9.56,21.19"/><path class="cls-6" d="M535.56,359.54c-3.58,8.43-11,22.58-13.43,38.81"/></g><path class="cls-7" d="M369.2,768.1H939.9"/><path class="cls-7" d="M590.37,850H864.8"/><path class="cls-7" d="M415.7,850H563.55"/><path class="cls-17" d="M692.4,605.9c20.5,0,50.6,122.8,63.6,158.9-2.7,7.5-18.1,19.3-26.5,19.3-16.3-27.3-52.8-85.8-59.2-94.8C665.1,682,671.9,605.9,692.4,605.9Z"/><path class="cls-8" d="M684.7,363.4c3.5-2.2,1.9-.7,4.6-4.8"/><path class="cls-6" d="M555.33,583.45a61,61,0,0,1-1.63,8.15c-33.3,14.1-120.2,5.6-122.6-4.2-2.14-8.64-12.74-182.11,44.38-203.66"/><path class="cls-6" d="M506.62,386c42.55,21.36,52,114.1,50.76,168.7"/><path class="cls-9" d="M492.7,390.51c-8.82-1.31-18.63-4.46-17.6-6.11,9.75-16.5,11.85-33.7,13.48-43.37"/><path class="cls-9" d="M513.27,368.41c-1.81,4.36-5.08,12.31-6.65,17.62"/><path class="cls-6" d="M458.52,493c-.58,4.16.05,9.31,0,12.45-.2,17,.6,36,10.8,50.3,4,5.6,10.6,11,17,10.9,10.1,4,27,8.6,27,8.6l25.6,5.6s43.2,7.7,64.5,7.1c7.1-.2,14.3-1,21.4-.8,4.1.1,10.6,1.4,14.5,0,1.1-.4.8-2.9.6-3.8-.9-3.4-4.2-5.8-7.1-7.3-6.9-3.4-10.8-1.3-17.9-1.1-5.8.1-12.7-2.9-22.8-6.8-11.9-4.7-25.5-10.3-37.6-14.4-13.8-4.7-27.9-9.7-41.4-15.2a80.36,80.36,0,0,0-8.3-2.7,146.42,146.42,0,0,0,2.2-22c.3-8,.4-16.4-.7-24.3"/><path class="cls-6" d="M513.05,463.78c1.56,10.76,1.73,19.38.75,22.12-6.2,3.6-40.5,15.7-65.5,3.4-7.7-20.4-1-84.1,23.9-88.2,6.49-1,12.12,1.09,17,5.12"/><path class="cls-9" d="M502.86,364.94a22.83,22.83,0,0,0,5.64,2.56c9.09,2.78,18.87-.5,27.06-8"/><path class="cls-9" d="M503.15,323.09a106.15,106.15,0,0,1-20.55,2.71,9,9,0,0,0-1.9,5.3,9.2,9.2,0,0,0,7.7,8.9l.18,1"/><path class="cls-9" d="M535.56,359.54c7.12-6.48,13-16.11,16.24-27.64,3.4-12.6,3.1-25-.4-34.9-1.87,1.78-3.8,3.5-5.79,5.14"/><path class="cls-10" d="M577.9,589.3c18,0,83-.5,94.9-.5"/><path class="cls-11" d="M566.8,590.2c19,0,84.6-1.6,95.5-1.6,8.4-13,47.6-81.5,50.2-86.7"/><path class="cls-12" d="M363.3,814.8,318.5,770l44.8-44.8"/><path class="cls-12" d="M919.2,974.8,964,930l-44.8-44.8"/><path class="cls-7" d="M369.2,929.4H883.7"/><path class="cls-16" d="M692.4,608.7c.3-14-51.2-17.9-83.7-17.9-14.55,0-36.47.76-57,1.6-32.95,12.32-110.06,5.38-119.63-3.59-4.46,5.06-7.14,14.59-7.14,32.49,0,41.8,45.7,76.7,99.8,76.7s78.2-1.4,83.1-2.6c1.5,13.8-30.5,108.6-33.9,133,2.4,6.5,18.3,14.6,25,14.6S694.7,698.2,692.4,608.7Z"/><polyline class="cls-9" points="576.56 828.17 554.34 865.46 628.35 905.49 588.5 847.27 593.64 838.27"/><polyline class="cls-9" points="731.35 781.67 750.68 820.53 824.39 779.94 753.87 781.96 749.08 772.77"/></g></svg>