<svg width="227" height="32" xmlns="http://www.w3.org/2000/svg">
    <g fill="none" fill-rule="evenodd">
        <path d="M106 7.2h7.584c1.8 0 2.76.312 3.552 1.032 1.032.984 1.656 2.856 1.656 7.368 0 4.512-.624 6.384-1.656 7.368-.792.72-1.752 1.032-3.552 1.032H106V7.2zm10.872 8.424c0-4.224-.48-5.568-1.152-6.192-.504-.48-.984-.6-2.136-.6h-5.688v13.536h5.688c1.152 0 1.656-.12 2.136-.6.672-.624 1.152-1.968 1.152-6.144zm15.302 2.52h-8.568c.024 2.928.216 3.576.576 3.936.288.288.624.36 1.536.36h3.192c.792 0 1.128-.096 1.392-.36.288-.288.408-.696.432-2.016h1.728c-.048 1.968-.264 2.64-.888 3.264-.48.48-1.104.672-2.328.672h-3.696c-1.32 0-2.064-.168-2.616-.72-.816-.816-1.104-1.848-1.104-5.712 0-3.84.288-4.872 1.104-5.688.552-.552 1.296-.72 2.616-.72h3.216c1.296 0 2.088.192 2.592.696.816.84 1.104 1.872 1.104 5.592v.408c0 .192-.072.288-.288.288zm-8.016-5.04c-.36.36-.528.936-.552 3.624h7.104c-.024-2.64-.216-3.288-.6-3.648-.264-.264-.6-.384-1.536-.384h-2.856c-.912 0-1.248.096-1.56.408zm21.278-1.944l-4.272 12.312c-.168.48-.312.6-.792.6h-1.104c-.48 0-.624-.12-.792-.6l-4.272-12.312h1.944l3.576 10.944h.312l3.552-10.944h1.848zm12.134 6.984h-8.568c.024 2.928.216 3.576.576 3.936.288.288.624.36 1.536.36h3.192c.792 0 1.128-.096 1.392-.36.288-.288.408-.696.432-2.016h1.728c-.048 1.968-.264 2.64-.888 3.264-.48.48-1.104.672-2.328.672h-3.696c-1.32 0-2.064-.168-2.616-.72-.816-.816-1.104-1.848-1.104-5.712 0-3.84.288-4.872 1.104-5.688.552-.552 1.296-.72 2.616-.72h3.216c1.296 0 2.088.192 2.592.696.816.84 1.104 1.872 1.104 5.592v.408c0 .192-.072.288-.288.288zm-8.016-5.04c-.36.36-.528.936-.552 3.624h7.104c-.024-2.64-.216-3.288-.6-3.648-.264-.264-.6-.384-1.536-.384h-2.856c-.912 0-1.248.096-1.56.408zM163.008 24h-1.776V6.72h1.776V24zm7.118 0c-1.32 0-2.064-.168-2.616-.72-.816-.816-1.104-1.848-1.104-5.712 0-3.84.288-4.872 1.104-5.688.552-.552 1.296-.72 2.616-.72h3.36c1.296 0 2.064.168 2.592.72.84.816 1.128 1.848 1.128 5.688 0 3.864-.288 4.896-1.128 5.712-.528.552-1.296.72-2.592.72h-3.36zm-1.944-6.432c0 3.48.192 4.104.576 4.488.288.264.648.36 1.56.36h2.976c.912 0 1.272-.096 1.536-.36.384-.384.6-1.008.6-4.488 0-3.456-.216-4.08-.6-4.464-.264-.288-.624-.36-1.536-.36h-2.976c-.912 0-1.272.072-1.56.36-.384.384-.576 1.008-.576 4.464zm12.446-6.408h1.776v1.704c1.704-1.392 2.304-1.728 3.648-1.728h1.488c1.464 0 2.184.24 2.736.792.744.768 1.008 1.776 1.008 5.64 0 3.888-.264 4.896-1.008 5.664-.552.552-1.272.792-2.736.792h-1.488c-1.32 0-1.968-.336-3.648-1.728V27.6h-1.776V11.16zm4.92 1.56c-1.104 0-1.872.336-3.144 1.152v7.392c1.32.84 2.088 1.176 3.192 1.176h1.584c1.032 0 1.44-.168 1.728-.456.48-.48.6-1.224.6-4.416 0-3.168-.12-3.936-.6-4.392-.288-.312-.696-.456-1.728-.456h-1.632zm19.046 5.424h-8.568c.024 2.928.216 3.576.576 3.936.288.288.624.36 1.536.36h3.192c.792 0 1.128-.096 1.392-.36.288-.288.408-.696.432-2.016h1.728c-.048 1.968-.264 2.64-.888 3.264-.48.48-1.104.672-2.328.672h-3.696c-1.32 0-2.064-.168-2.616-.72-.816-.816-1.104-1.848-1.104-5.712 0-3.84.288-4.872 1.104-5.688.552-.552 1.296-.72 2.616-.72h3.216c1.296 0 2.088.192 2.592.696.816.84 1.104 1.872 1.104 5.592v.408c0 .192-.072.288-.288.288zm-8.016-5.04c-.36.36-.528.936-.552 3.624h7.104c-.024-2.64-.216-3.288-.6-3.648-.264-.264-.6-.384-1.536-.384h-2.856c-.912 0-1.248.096-1.56.408zM210.032 24h-1.776V11.16h1.776v2.088c1.56-1.632 2.136-2.112 3.216-2.112h1.536v1.824h-1.704c-.984 0-1.656.144-3.048 1.104V24zm16.814-3.624c0 1.752-.24 2.496-.792 3.048-.408.408-.96.576-1.896.576h-4.704c-.984 0-1.68-.192-2.04-.552-.552-.552-.72-1.08-.744-3.336h1.632c.048 1.56.144 1.872.384 2.112.168.168.408.288 1.08.288h3.984c.576 0 .84-.096 1.056-.312.192-.192.36-.504.36-1.728 0-1.104-.12-1.44-.312-1.608-.168-.192-.408-.312-1.224-.36l-4.08-.408c-1.176-.12-1.704-.288-2.064-.648-.48-.48-.648-1.104-.648-2.76 0-1.608.264-2.424.792-2.952.408-.408.936-.576 1.896-.576h4.44c1.032 0 1.608.192 1.968.552.504.504.72 1.104.744 3.24h-1.632c-.048-1.512-.168-1.8-.384-2.016-.168-.168-.432-.288-1.08-.288h-3.672c-.528 0-.816.096-1.008.288-.216.216-.384.552-.384 1.656 0 1.032.072 1.344.288 1.536.192.216.408.312 1.248.384l4.128.408c1.176.096 1.704.288 2.04.624.48.48.624 1.224.624 2.832z" fill="#2988CC" fill-rule="nonzero" />
        <path d="M61.328 23.742c-1.269 0-1.925-.205-2.469-.772-.815-.816-1.132-1.95-1.132-5.467 0-3.54.317-4.651 1.132-5.49.521-.545 1.2-.75 2.469-.75h4.234c1.268 0 1.925.205 2.468.75.815.839 1.132 1.95 1.132 5.49 0 3.539-.317 4.65-1.132 5.467-.543.567-1.2.772-2.468.772h-4.234zm27.873-12.5l2.602.021 1.746 1.578v-1.578h3.487v12.998c0 2.155-.227 2.52-.793 3.11-.423.445-1.082.672-2.2.7l-.246.004-5.109-.011-1.575-1.749-.005-.735h6.441l-.006-1.78-4.393-.002c-1.336 0-2.01-.25-2.576-.795-.725-.748-1.02-2.387-1.02-5.45 0-3.085.363-4.77 1.11-5.54.566-.545 1.291-.772 2.537-.772zM46.504 7.813v6.192h1.112l4.696-6.192h4.123l-5.922 7.508 6.173 8.467h-4.374l-4.695-6.653-1.113-.005v6.658H42.79V7.814h3.713zm33.477 3.427c1.064 0 1.743.227 2.219.704.496.475.704 1.094.723 2.74l.002.254v8.803H79.46v-8.464l-.002-.065v-1.158h-4.256v9.687h-3.464V11.264h3.452v1.577l1.745-1.578h1.013c.107-.01.217-.017.335-.02l.18-.002h1.518zm13.59 2.766h-4.552v6.992h4.552v-6.992zm-27.85 0v6.987h-4.552v-6.988h4.552z" fill="#043558" />
        <path fill="#179FCC" d="M11.67 26.419l-.88 1.099 1.988 3.064L12.57 32h8.428l.582-1.418-3.387-4.163z" />
        <path fill="#15B59A" d="M16.42 7.447l-3.025 5.257L28.15 30.039l-.422 1.589h6.767l1.227-5.639L19.932 7.442z" />
        <path fill="#1DC263" d="M22.467 0l-4.28 3.476-1.443 2.645h3.583l6.153 7.274 3.66-2.984V8.515l-1.273-1.773.94-.97z" />
        <path fill="#18BDCC" d="M7.302 18.141H5.293L0 24.767v6.86h5.679l1-1.285 4.384-5.592h6.335l1.95-2.944-6.87-8.039z" />
    </g>
</svg>
